<svg width="24" height="24" viewBox="0 0 24 24" fill="none" xmlns="http://www.w3.org/2000/svg">
<path d="M17.5 8.25C16.9849 8.25 16.4847 8.29886 16.0002 8.39756C15.522 8.49497 15.0535 8.64039 14.5951 8.83323C14.5547 8.84699 14.5244 8.85376 14.503 8.85694C14.5016 8.8452 14.5005 8.8306 14.5001 8.81277C14.5012 8.81107 14.5026 8.80901 14.5044 8.80659C14.512 8.79611 14.5179 8.78941 14.5216 8.78549C14.9882 8.61589 15.4663 8.48446 15.9561 8.39117C16.4484 8.29738 16.9628 8.25 17.5 8.25ZM17.5 8.25C17.8542 8.25 18.1974 8.27213 18.5295 8.317C18.8594 8.36159 19.1781 8.42861 19.4852 8.51858C19.4903 8.51993 19.495 8.521 19.4991 8.52184C19.4992 8.52056 19.4993 8.51921 19.4994 8.5178C19.4768 8.49395 19.4603 8.48309 19.4506 8.4781C19.1471 8.40348 18.8356 8.34706 18.5159 8.30899C18.1863 8.26975 17.8477 8.25 17.5 8.25ZM17.5 13.75C16.9878 13.75 16.4906 13.7942 16.009 13.8834C15.5275 13.9725 15.056 14.1144 14.595 14.3083C14.5552 14.3219 14.5242 14.3294 14.5009 14.3333C14.5005 14.3252 14.5001 14.3162 14.5 14.3062C14.5017 14.302 14.506 14.2924 14.516 14.2773C14.5221 14.2683 14.5271 14.2617 14.5308 14.2572C14.9921 14.0902 15.4646 13.9645 15.9485 13.88C16.4434 13.7936 16.9604 13.75 17.5 13.75ZM17.5 13.75C17.8542 13.75 18.1974 13.7721 18.5295 13.817C18.8594 13.8616 19.1781 13.9286 19.4852 14.0186C19.4904 14.0199 19.495 14.021 19.4991 14.0218C19.4992 14.0206 19.4993 14.0192 19.4994 14.0178C19.4768 13.994 19.4603 13.9831 19.4506 13.9781C19.1471 13.9035 18.8356 13.8471 18.5159 13.809C18.1863 13.7698 17.8477 13.75 17.5 13.75ZM17.5 11C16.9849 11 16.4847 11.0489 16.0002 11.1476C15.522 11.245 15.0535 11.3904 14.5951 11.5832C14.5547 11.597 14.5244 11.6038 14.503 11.6069C14.5016 11.5952 14.5005 11.5806 14.5001 11.5628C14.5012 11.5611 14.5026 11.559 14.5044 11.5566C14.512 11.5461 14.5179 11.5394 14.5216 11.5355C14.9882 11.3659 15.4663 11.2345 15.9561 11.1412C16.4484 11.0474 16.9628 11 17.5 11ZM17.5 11C17.8542 11 18.1974 11.0221 18.5295 11.067C18.8594 11.1116 19.1781 11.1786 19.4852 11.2686C19.4903 11.2699 19.495 11.271 19.4991 11.2718C19.4992 11.2706 19.4993 11.2692 19.4994 11.2678C19.4768 11.2439 19.4603 11.2331 19.4506 11.2281C19.1471 11.1535 18.8356 11.0971 18.5159 11.059C18.1863 11.0198 17.8477 11 17.5 11ZM11.0728 18.1954L11.8 18.5664V17.75V7.075V6.80741L11.5774 6.65897C10.7873 6.13226 9.93176 5.72444 9.01241 5.4355C8.08984 5.14555 7.15182 5 6.2 5C5.52449 5 4.86133 5.0845 4.21156 5.25362C3.58513 5.41666 2.95561 5.61801 2.32305 5.85736L2 5.97959V6.325V17.175V17.9494L2.70579 17.6307C3.17647 17.4181 3.72099 17.2583 4.34369 17.1559C4.97661 17.0517 5.59527 17 6.2 17C7.06105 17 7.89147 17.0996 8.69236 17.2979C9.49486 17.4965 10.2882 17.7951 11.0728 18.1954ZM12.3 17.75V18.559L13.0236 18.1972C13.8296 17.7942 14.6137 17.4949 15.376 17.2964C16.1314 17.0996 16.9388 17 17.8 17C18.407 17 19.0366 17.0479 19.6892 17.1446C20.3431 17.2415 20.8906 17.3688 21.337 17.5227L22 17.7513V17.05V6.325V6.01598L21.7236 5.87779C21.1179 5.57492 20.4773 5.35267 19.803 5.21072C19.1365 5.07042 18.4687 5 17.8 5C16.8481 5 15.9248 5.14557 15.0322 5.43723C14.1466 5.72659 13.3098 6.13423 12.5226 6.65897L12.3 6.80741V7.075V17.75ZM11.7123 19.1596L11.6885 19.1405L11.6626 19.1245C10.8422 18.6183 9.96922 18.2255 9.0445 17.9463C8.11462 17.6656 7.16594 17.525 6.2 17.525C5.54234 17.525 4.90046 17.605 4.27548 17.7658C3.67482 17.9202 3.07495 18.1088 2.47591 18.3313L2.45469 18.3392L2.43427 18.3489C2.20946 18.4564 2.02368 18.4449 1.81034 18.306C1.59599 18.1664 1.5 17.992 1.5 17.725V6.15C1.5 5.98137 1.53838 5.83693 1.61125 5.7068C1.67389 5.59495 1.76955 5.50006 1.91968 5.42419C2.58233 5.1091 3.27206 4.87678 3.98969 4.72695C4.71404 4.57571 5.45062 4.5 6.2 4.5C7.20439 4.5 8.17895 4.63542 9.12514 4.90576C10.0657 5.17449 10.9471 5.58537 11.7708 6.13979L12.0527 6.32955L12.3329 6.13726C13.1397 5.58357 14.0039 5.17339 14.927 4.90514C15.8559 4.63521 16.813 4.5 17.8 4.5C18.5494 4.5 19.2814 4.57571 19.9967 4.72672C20.706 4.87646 21.392 5.10876 22.0553 5.42419C22.208 5.50132 22.3119 5.60004 22.3838 5.71975C22.4607 5.84804 22.5 5.98786 22.5 6.15V17.725C22.5 18.0312 22.3911 18.2226 22.1666 18.3672C22.0421 18.4475 21.9462 18.4711 21.8725 18.4719C21.7998 18.4727 21.7093 18.4519 21.5934 18.3782L21.5562 18.3545L21.5154 18.3377C20.9257 18.0949 20.3265 17.8994 19.718 17.7516C19.095 17.6003 18.4553 17.525 17.8 17.525C16.8498 17.525 15.9169 17.6659 15.003 17.9471C14.0942 18.2267 13.2373 18.6202 12.4333 19.127L12.4096 19.142L12.3877 19.1596C12.3653 19.1774 12.3385 19.1914 12.3001 19.2003C12.235 19.2153 12.1527 19.225 12.05 19.225C11.9473 19.225 11.865 19.2153 11.7999 19.2003C11.7615 19.1914 11.7347 19.1774 11.7123 19.1596Z" stroke="url(#paint0_linear_16_40)"/>
<defs>
<linearGradient id="paint0_linear_16_40" x1="12" y1="4" x2="12" y2="19.725" gradientUnits="userSpaceOnUse">
<stop stop-color="#7287F9"/>
<stop offset="1" stop-color="#3751D9"/>
</linearGradient>
</defs>
</svg>
