<svg width="336" height="33" viewBox="0 0 336 33" fill="none" xmlns="http://www.w3.org/2000/svg">
<path d="M8.136 32H0.552002L9.336 1.32799H20.616L29.352 32H21.768L15.264 6.27199H14.712L8.136 32ZM21.84 24.776H8.016V18.944H21.84V24.776Z" fill="#0E0E0E"/>
<path d="M54.8663 32H47.5223V18.128C47.5223 17.264 47.4103 16.52 47.1863 15.896C46.9623 15.256 46.5863 14.768 46.0583 14.432C45.5303 14.096 44.8103 13.928 43.8983 13.928C43.1463 13.928 42.4823 14.064 41.9062 14.336C41.3303 14.592 40.8423 14.952 40.4423 15.416C40.0583 15.864 39.7703 16.376 39.5783 16.952L38.4503 13.52H39.6983C39.9543 12.448 40.3703 11.488 40.9463 10.64C41.5383 9.79199 42.3463 9.11999 43.3703 8.62399C44.3943 8.11199 45.6903 7.85599 47.2583 7.85599C49.0183 7.85599 50.4583 8.19999 51.5783 8.88799C52.6983 9.55999 53.5223 10.568 54.0503 11.912C54.5943 13.256 54.8663 14.936 54.8663 16.952V32ZM39.6983 32H32.3543V8.40799H39.6503L39.4103 14.312L39.6983 15.008V32Z" fill="#0E0E0E"/>
<path d="M67.1497 32.552C64.3977 32.552 62.3098 31.648 60.8858 29.84C59.4778 28.032 58.7738 25.344 58.7738 21.776V18.872C58.7738 15.24 59.4858 12.496 60.9098 10.64C62.3338 8.78399 64.4858 7.85599 67.3658 7.85599C68.7738 7.85599 69.9498 8.08799 70.8938 8.55199C71.8378 9.01599 72.5897 9.67199 73.1497 10.52C73.7257 11.368 74.1258 12.368 74.3498 13.52H76.3418L74.6138 18.272C74.5818 17.296 74.3898 16.472 74.0378 15.8C73.6858 15.128 73.1898 14.616 72.5498 14.264C71.9258 13.896 71.1658 13.712 70.2698 13.712C68.9258 13.712 67.9018 14.104 67.1978 14.888C66.4938 15.672 66.1418 16.848 66.1418 18.416V21.8C66.1418 23.352 66.4938 24.528 67.1978 25.328C67.9178 26.112 68.9738 26.504 70.3658 26.504C71.1018 26.504 71.7578 26.368 72.3338 26.096C72.9258 25.824 73.4218 25.448 73.8218 24.968C74.2378 24.488 74.5417 23.944 74.7337 23.336L76.5338 26.888H74.4697C74.2297 27.944 73.8298 28.904 73.2698 29.768C72.7098 30.632 71.9338 31.312 70.9417 31.808C69.9497 32.304 68.6858 32.552 67.1497 32.552ZM81.8138 32H74.5178L74.7337 26.024L74.6138 24.776V14.192L74.5178 7.35199V0.29599H81.8138V32Z" fill="#0E0E0E"/>
<path d="M98.4413 32.6C94.1533 32.6 90.9853 31.648 88.9373 29.744C86.8893 27.824 85.8652 25.032 85.8652 21.368V18.92C85.8652 15.304 86.8253 12.536 88.7453 10.616C90.6653 8.67999 93.4573 7.71199 97.1213 7.71199C99.5853 7.71199 101.633 8.13599 103.265 8.98399C104.913 9.81599 106.145 11.008 106.961 12.56C107.793 14.112 108.209 15.976 108.209 18.152V18.944C108.209 19.552 108.177 20.176 108.113 20.816C108.065 21.44 107.993 22.024 107.897 22.568H101.273C101.337 21.64 101.377 20.768 101.393 19.952C101.409 19.12 101.417 18.368 101.417 17.696C101.417 16.72 101.265 15.904 100.961 15.248C100.657 14.576 100.185 14.064 99.5452 13.712C98.9212 13.36 98.1133 13.184 97.1213 13.184C95.6493 13.184 94.5692 13.584 93.8812 14.384C93.2092 15.168 92.8733 16.288 92.8733 17.744V19.904L92.9212 20.696V22.376C92.9212 22.984 93.0173 23.56 93.2093 24.104C93.4173 24.648 93.7693 25.128 94.2653 25.544C94.7773 25.944 95.4733 26.264 96.3533 26.504C97.2493 26.728 98.3853 26.84 99.7613 26.84C101.217 26.84 102.617 26.704 103.961 26.432C105.305 26.144 106.593 25.76 107.825 25.28L107.225 30.8C106.137 31.36 104.849 31.8 103.361 32.12C101.873 32.44 100.233 32.6 98.4413 32.6ZM106.409 22.568H89.7533V18.032H106.409V22.568Z" fill="#0E0E0E"/>
<path d="M119.382 18.752L117.366 14.288H119.094C119.478 12.336 120.222 10.808 121.326 9.70399C122.446 8.58399 124.022 8.02399 126.054 8.02399C126.406 8.02399 126.726 8.04799 127.014 8.09599C127.318 8.14399 127.606 8.19999 127.878 8.26399L128.238 15.68C127.902 15.584 127.51 15.52 127.062 15.488C126.614 15.44 126.158 15.416 125.694 15.416C124.126 15.416 122.806 15.712 121.734 16.304C120.662 16.88 119.878 17.696 119.382 18.752ZM119.526 32H112.182V8.40799H119.094L118.782 15.944L119.526 16.04V32Z" fill="#0E0E0E"/>
<path d="M140.082 32.576C138.21 32.576 136.522 32.408 135.018 32.072C133.514 31.752 132.226 31.376 131.154 30.944L130.53 24.776C131.762 25.288 133.122 25.752 134.61 26.168C136.114 26.568 137.738 26.768 139.482 26.768C140.874 26.768 141.858 26.624 142.434 26.336C143.026 26.032 143.322 25.568 143.322 24.944V24.848C143.322 24.416 143.17 24.064 142.866 23.792C142.578 23.504 142.066 23.248 141.33 23.024C140.61 22.8 139.594 22.536 138.282 22.232C136.314 21.768 134.754 21.224 133.602 20.6C132.45 19.96 131.626 19.184 131.13 18.272C130.65 17.344 130.41 16.248 130.41 14.984V14.792C130.41 12.456 131.242 10.712 132.906 9.55999C134.57 8.39199 137.018 7.80799 140.25 7.80799C142.074 7.80799 143.714 7.97599 145.17 8.31199C146.626 8.64799 147.85 9.04799 148.842 9.51199L149.466 15.248C148.314 14.736 147.026 14.312 145.602 13.976C144.194 13.64 142.714 13.472 141.162 13.472C140.218 13.472 139.474 13.536 138.93 13.664C138.402 13.792 138.026 13.976 137.802 14.216C137.594 14.456 137.49 14.752 137.49 15.104V15.176C137.49 15.56 137.618 15.888 137.874 16.16C138.13 16.432 138.594 16.688 139.266 16.928C139.954 17.168 140.938 17.44 142.218 17.744C144.202 18.176 145.802 18.672 147.018 19.232C148.234 19.776 149.122 20.488 149.682 21.368C150.242 22.232 150.522 23.384 150.522 24.824V25.04C150.522 27.584 149.666 29.48 147.954 30.728C146.242 31.96 143.618 32.576 140.082 32.576Z" fill="#0E0E0E"/>
<path d="M164.675 32.672C160.867 32.672 157.987 31.728 156.035 29.84C154.099 27.936 153.131 25.264 153.131 21.824V18.728C153.131 15.24 154.107 12.536 156.059 10.616C158.011 8.67999 160.883 7.71199 164.675 7.71199C168.467 7.71199 171.331 8.67999 173.267 10.616C175.219 12.536 176.195 15.24 176.195 18.728V21.824C176.195 25.264 175.227 27.936 173.291 29.84C171.355 31.728 168.483 32.672 164.675 32.672ZM164.675 26.888C166.035 26.888 167.067 26.48 167.771 25.664C168.491 24.832 168.851 23.656 168.851 22.136V18.416C168.851 16.816 168.491 15.6 167.771 14.768C167.067 13.936 166.035 13.52 164.675 13.52C163.315 13.52 162.275 13.936 161.555 14.768C160.851 15.6 160.499 16.816 160.499 18.416V22.136C160.499 23.656 160.851 24.832 161.555 25.664C162.275 26.48 163.315 26.888 164.675 26.888Z" fill="#0E0E0E"/>
<path d="M202.757 32H195.413V18.128C195.413 17.264 195.301 16.52 195.077 15.896C194.853 15.256 194.477 14.768 193.949 14.432C193.421 14.096 192.701 13.928 191.789 13.928C191.037 13.928 190.373 14.064 189.797 14.336C189.221 14.592 188.733 14.952 188.333 15.416C187.949 15.864 187.661 16.376 187.469 16.952L186.341 13.52H187.589C187.845 12.448 188.261 11.488 188.837 10.64C189.429 9.79199 190.237 9.11999 191.261 8.62399C192.285 8.11199 193.581 7.85599 195.149 7.85599C196.909 7.85599 198.349 8.19999 199.469 8.88799C200.589 9.55999 201.413 10.568 201.941 11.912C202.485 13.256 202.757 14.936 202.757 16.952V32ZM187.589 32H180.245V8.40799H187.541L187.301 14.312L187.589 15.008V32Z" fill="#0E0E0E"/>
<path d="M226.376 32H219.104L220.064 1.32799H230.528L235.592 19.616H235.904L240.968 1.32799H251.432L252.392 32H245.12L244.904 21.944L244.688 9.70399H244.328L239.072 28.4H232.4L227.144 9.70399H226.76L226.568 21.968L226.376 32Z" fill="#0E0E0E"/>
<path d="M277.903 32H270.679L270.895 26.096L270.727 25.736V18.368L270.679 17.408C270.679 16.096 270.295 15.128 269.527 14.504C268.759 13.88 267.471 13.568 265.663 13.568C264.079 13.568 262.575 13.768 261.151 14.168C259.727 14.568 258.383 15.024 257.119 15.536L257.743 9.84799C258.495 9.49599 259.335 9.16799 260.263 8.86399C261.207 8.54399 262.247 8.28799 263.383 8.09599C264.519 7.90399 265.735 7.80799 267.031 7.80799C269.095 7.80799 270.823 8.04799 272.215 8.52799C273.607 9.00799 274.719 9.68799 275.551 10.568C276.383 11.448 276.983 12.504 277.351 13.736C277.719 14.952 277.903 16.296 277.903 17.768V32ZM263.167 32.552C260.815 32.552 259.031 31.96 257.815 30.776C256.599 29.592 255.991 27.904 255.991 25.712V25.064C255.991 22.744 256.703 21.032 258.127 19.928C259.567 18.808 261.847 18.048 264.967 17.648L271.303 16.808L271.735 21.224L266.119 22.04C264.983 22.184 264.183 22.448 263.719 22.832C263.255 23.216 263.023 23.784 263.023 24.536V24.704C263.023 25.424 263.255 26 263.719 26.432C264.183 26.848 264.927 27.056 265.951 27.056C266.847 27.056 267.615 26.92 268.255 26.648C268.911 26.376 269.447 26.024 269.863 25.592C270.279 25.144 270.591 24.648 270.799 24.104L271.831 27.08H270.631C270.375 28.104 269.975 29.032 269.431 29.864C268.903 30.696 268.135 31.352 267.127 31.832C266.119 32.312 264.799 32.552 263.167 32.552Z" fill="#0E0E0E"/>
<path d="M289.847 32H282.503V0.29599H289.847V32Z" fill="#0E0E0E"/>
<path d="M304.193 32.528C302.097 32.528 300.425 32.216 299.177 31.592C297.945 30.952 297.057 30 296.513 28.736C295.969 27.472 295.697 25.912 295.697 24.056V10.88H302.992V22.88C302.992 24.032 303.248 24.88 303.76 25.424C304.288 25.952 305.265 26.216 306.689 26.216C307.473 26.216 308.249 26.128 309.017 25.952C309.785 25.776 310.48 25.552 311.104 25.28L310.48 31.352C309.664 31.704 308.72 31.984 307.648 32.192C306.592 32.416 305.441 32.528 304.193 32.528ZM310.241 14.264H292.529V8.50399H310.888L310.241 14.264ZM302.776 9.03199H295.793L295.768 2.93599L303.04 2.23999L302.776 9.03199Z" fill="#0E0E0E"/>
<path d="M335.231 32H328.007L328.223 26.096L328.055 25.736V18.368L328.007 17.408C328.007 16.096 327.623 15.128 326.855 14.504C326.087 13.88 324.799 13.568 322.991 13.568C321.407 13.568 319.903 13.768 318.479 14.168C317.055 14.568 315.711 15.024 314.447 15.536L315.071 9.84799C315.823 9.49599 316.663 9.16799 317.591 8.86399C318.535 8.54399 319.575 8.28799 320.711 8.09599C321.847 7.90399 323.063 7.80799 324.359 7.80799C326.423 7.80799 328.151 8.04799 329.543 8.52799C330.935 9.00799 332.047 9.68799 332.879 10.568C333.711 11.448 334.311 12.504 334.679 13.736C335.047 14.952 335.231 16.296 335.231 17.768V32ZM320.495 32.552C318.143 32.552 316.359 31.96 315.143 30.776C313.927 29.592 313.319 27.904 313.319 25.712V25.064C313.319 22.744 314.031 21.032 315.455 19.928C316.895 18.808 319.175 18.048 322.295 17.648L328.631 16.808L329.063 21.224L323.447 22.04C322.311 22.184 321.511 22.448 321.047 22.832C320.583 23.216 320.351 23.784 320.351 24.536V24.704C320.351 25.424 320.583 26 321.047 26.432C321.511 26.848 322.255 27.056 323.279 27.056C324.175 27.056 324.943 26.92 325.583 26.648C326.239 26.376 326.775 26.024 327.191 25.592C327.607 25.144 327.919 24.648 328.127 24.104L329.159 27.08H327.959C327.703 28.104 327.303 29.032 326.759 29.864C326.231 30.696 325.463 31.352 324.455 31.832C323.447 32.312 322.127 32.552 320.495 32.552Z" fill="#0E0E0E"/>
</svg>
